<svg width="416" height="86" viewBox="0 0 416 86" fill="none" xmlns="http://www.w3.org/2000/svg">
<path d="M1.62252 83V74.6617H5.05314C5.79168 74.6617 6.42301 74.7808 6.94713 75.019C7.4792 75.2573 7.88817 75.5987 8.17406 76.0435C8.45994 76.4882 8.60288 77.0163 8.60288 77.6277C8.60288 78.2392 8.45994 78.7673 8.17406 79.212C7.88817 79.6567 7.4792 79.9982 6.94713 80.2364C6.42301 80.4747 5.79168 80.5938 5.05314 80.5938H2.48018L3.17106 79.8672V83H1.62252ZM3.17106 80.0339L2.48018 79.2835H4.98167C5.66462 79.2835 6.17683 79.1405 6.5183 78.8547C6.86772 78.5608 7.04243 78.1519 7.04243 77.6277C7.04243 77.0957 6.86772 76.6867 6.5183 76.4008C6.17683 76.1149 5.66462 75.972 4.98167 75.972H2.48018L3.17106 75.2096V80.0339ZM10.0798 83V74.6617H11.6045V80.5819L16.0834 74.6617H17.5247V83H16V77.0917L11.5211 83H10.0798ZM21.6136 83V75.5908L21.9829 75.972H18.862V74.6617H25.9138V75.972H22.7929L23.1503 75.5908V83H21.6136ZM27.0079 81.6897C27.4446 81.8406 27.8298 81.8803 28.1633 81.8088C28.4969 81.7373 28.7946 81.4951 29.0567 81.0822L29.4617 80.4509L29.6166 80.2841L32.5231 74.6617H34.0478L30.4266 81.3919C30.1328 81.9557 29.7833 82.3846 29.3783 82.6784C28.9733 82.9722 28.5366 83.135 28.068 83.1668C27.6074 83.2065 27.127 83.1191 26.6267 82.9047L27.0079 81.6897ZM29.5808 81.6182L25.8643 74.6617H27.5201L30.4266 80.427L29.5808 81.6182ZM33.797 83L37.5492 74.6617H39.074L42.8381 83H41.2181L37.99 75.4836H38.6094L35.3932 83H33.797ZM35.5242 81.0703L35.9411 79.8553H40.4438L40.8607 81.0703H35.5242ZM43.9736 83.1191C43.8386 83.1191 43.7036 83.1072 43.5686 83.0834C43.4335 83.0596 43.2866 83.0318 43.1278 83L43.235 81.654C43.3462 81.6857 43.4653 81.7016 43.5924 81.7016C43.9259 81.7016 44.1919 81.5666 44.3905 81.2966C44.589 81.0187 44.7319 80.6137 44.8193 80.0816C44.9067 79.5495 44.9662 78.8944 44.998 78.1161L45.1171 74.6617H51.2517V83H49.727V75.5908L50.0844 75.972H46.1177L46.4512 75.5789L46.3678 78.0566C46.344 78.8825 46.2884 79.6091 46.2011 80.2364C46.1137 80.8638 45.9787 81.3919 45.7961 81.8207C45.6214 82.2416 45.3871 82.5632 45.0933 82.7856C44.7994 83.0079 44.4262 83.1191 43.9736 83.1191ZM57.445 77.4848C58.4376 77.4848 59.204 77.7072 59.744 78.1519C60.284 78.5966 60.554 79.2636 60.554 80.1531C60.554 81.0901 60.2562 81.8009 59.6606 82.2853C59.0729 82.7618 58.251 83 57.1948 83H53.6093V74.6617H55.1341V77.4848H57.445ZM57.1233 81.8088C57.7189 81.8088 58.1795 81.6698 58.5051 81.3919C58.8387 81.114 59.0054 80.7089 59.0054 80.1769C59.0054 79.6528 58.8426 79.2716 58.517 79.0333C58.1914 78.7872 57.7269 78.6641 57.1233 78.6641H55.1341V81.8088H57.1233ZM67.9965 74.6617H69.545V83H67.9965V74.6617ZM63.6844 83H62.1358V74.6617H63.6844V83ZM68.1156 79.4264H63.5533V78.1042H68.1156V79.4264ZM75.7554 83.1191C75.1042 83.1191 74.5047 83.0119 73.9567 82.7975C73.4088 82.5831 72.9323 82.2853 72.5273 81.9041C72.1223 81.515 71.8086 81.0623 71.5862 80.5462C71.3639 80.022 71.2527 79.4503 71.2527 78.8308C71.2527 78.2114 71.3639 77.6436 71.5862 77.1274C71.8086 76.6033 72.1223 76.1507 72.5273 75.7695C72.9323 75.3804 73.4088 75.0786 73.9567 74.8642C74.5047 74.6498 75.1002 74.5426 75.7435 74.5426C76.3947 74.5426 76.9903 74.6498 77.5303 74.8642C78.0782 75.0786 78.5547 75.3804 78.9597 75.7695C79.3647 76.1507 79.6784 76.6033 79.9007 77.1274C80.1231 77.6436 80.2343 78.2114 80.2343 78.8308C80.2343 79.4503 80.1231 80.022 79.9007 80.5462C79.6784 81.0703 79.3647 81.5229 78.9597 81.9041C78.5547 82.2853 78.0782 82.5831 77.5303 82.7975C76.9903 83.0119 76.3986 83.1191 75.7554 83.1191ZM75.7435 81.7612C76.1644 81.7612 76.5535 81.6897 76.9109 81.5467C77.2682 81.4038 77.5779 81.2013 77.84 80.9392C78.102 80.6692 78.3045 80.3595 78.4475 80.0101C78.5984 79.6528 78.6738 79.2597 78.6738 78.8308C78.6738 78.402 78.5984 78.0129 78.4475 77.6635C78.3045 77.3061 78.102 76.9964 77.84 76.7343C77.5779 76.4643 77.2682 76.2579 76.9109 76.1149C76.5535 75.972 76.1644 75.9005 75.7435 75.9005C75.3226 75.9005 74.9335 75.972 74.5761 76.1149C74.2267 76.2579 73.917 76.4643 73.647 76.7343C73.3849 76.9964 73.1785 77.3061 73.0276 77.6635C72.8846 78.0129 72.8132 78.402 72.8132 78.8308C72.8132 79.2517 72.8846 79.6408 73.0276 79.9982C73.1785 80.3556 73.3849 80.6692 73.647 80.9392C73.9091 81.2013 74.2188 81.4038 74.5761 81.5467C74.9335 81.6897 75.3226 81.7612 75.7435 81.7612ZM83.3758 78.128H87.5211V79.4026H83.3758V78.128ZM83.4949 81.7016H88.2001V83H81.9463V74.6617H88.0333V75.9601H83.4949V81.7016ZM92.1583 83L95.9105 74.6617H97.4352L101.199 83H99.5794L96.3512 75.4836H96.9707L93.7544 83H92.1583ZM93.8855 81.0703L94.3024 79.8553H98.8051L99.222 81.0703H93.8855ZM102.49 83V74.6617H108.148L108.136 75.972H103.645L104.003 75.6027L104.015 83H102.49ZM110.875 78.128H115.021V79.4026H110.875V78.128ZM110.995 81.7016H115.7V83H109.446V74.6617H115.533V75.9601H110.995V81.7016ZM123.287 74.6617H124.835V83H123.287V74.6617ZM118.975 83H117.426V74.6617H118.975V83ZM123.406 79.4264H118.844V78.1042H123.406V79.4264ZM128.925 83V75.5908L129.295 75.972H126.174V74.6617H133.226V75.972H130.105L130.462 75.5908V83H128.925ZM138.28 83.1191C137.645 83.1191 137.053 83.0159 136.505 82.8094C135.965 82.595 135.493 82.2972 135.088 81.916C134.691 81.5269 134.381 81.0703 134.159 80.5462C133.936 80.022 133.825 79.4503 133.825 78.8308C133.825 78.2114 133.936 77.6397 134.159 77.1155C134.381 76.5914 134.695 76.1388 135.1 75.7576C135.505 75.3685 135.977 75.0707 136.517 74.8642C137.057 74.6498 137.649 74.5426 138.292 74.5426C138.975 74.5426 139.599 74.6617 140.162 74.8999C140.726 75.1302 141.203 75.4757 141.592 75.9363L140.591 76.8773C140.289 76.5517 139.952 76.3095 139.579 76.1507C139.205 75.9839 138.8 75.9005 138.364 75.9005C137.927 75.9005 137.526 75.972 137.161 76.1149C136.803 76.2579 136.49 76.4604 136.22 76.7224C135.958 76.9845 135.751 77.2942 135.6 77.6516C135.457 78.0089 135.386 78.402 135.386 78.8308C135.386 79.2597 135.457 79.6528 135.6 80.0101C135.751 80.3675 135.958 80.6772 136.22 80.9392C136.49 81.2013 136.803 81.4038 137.161 81.5467C137.526 81.6897 137.927 81.7612 138.364 81.7612C138.8 81.7612 139.205 81.6818 139.579 81.5229C139.952 81.3562 140.289 81.106 140.591 80.7725L141.592 81.7254C141.203 82.1781 140.726 82.5235 140.162 82.7618C139.599 83 138.971 83.1191 138.28 83.1191ZM144.688 83V75.5908L145.057 75.972H141.936V74.6617H148.988V75.972H145.867L146.224 75.5908V83H144.688ZM150.335 83V74.6617H154.064C155.001 74.6617 155.731 74.8483 156.255 75.2215C156.78 75.5868 157.042 76.1149 157.042 76.8058C157.042 77.4888 156.791 78.0169 156.291 78.3901C155.791 78.7554 155.132 78.938 154.314 78.938L154.528 78.5092C155.457 78.5092 156.176 78.6958 156.684 79.0691C157.193 79.4423 157.447 79.9823 157.447 80.6891C157.447 81.4117 157.181 81.9795 156.649 82.3925C156.116 82.7975 155.33 83 154.29 83H150.335ZM151.86 81.8088H154.242C154.782 81.8088 155.191 81.7095 155.469 81.511C155.747 81.3045 155.886 80.9909 155.886 80.57C155.886 80.1491 155.747 79.8434 155.469 79.6528C155.191 79.4542 154.782 79.355 154.242 79.355H151.86V81.8088ZM151.86 78.2233H153.933C154.433 78.2233 154.814 78.1241 155.076 77.9255C155.338 77.7191 155.469 77.4252 155.469 77.0441C155.469 76.647 155.338 76.3492 155.076 76.1507C154.814 75.9521 154.433 75.8529 153.933 75.8529H151.86V78.2233ZM163.082 83.1191C162.431 83.1191 161.831 83.0119 161.283 82.7975C160.735 82.5831 160.259 82.2853 159.854 81.9041C159.449 81.515 159.135 81.0623 158.913 80.5462C158.691 80.022 158.579 79.4503 158.579 78.8308C158.579 78.2114 158.691 77.6436 158.913 77.1274C159.135 76.6033 159.449 76.1507 159.854 75.7695C160.259 75.3804 160.735 75.0786 161.283 74.8642C161.831 74.6498 162.427 74.5426 163.07 74.5426C163.721 74.5426 164.317 74.6498 164.857 74.8642C165.405 75.0786 165.881 75.3804 166.286 75.7695C166.691 76.1507 167.005 76.6033 167.227 77.1274C167.45 77.6436 167.561 78.2114 167.561 78.8308C167.561 79.4503 167.45 80.022 167.227 80.5462C167.005 81.0703 166.691 81.5229 166.286 81.9041C165.881 82.2853 165.405 82.5831 164.857 82.7975C164.317 83.0119 163.725 83.1191 163.082 83.1191ZM163.07 81.7612C163.491 81.7612 163.88 81.6897 164.238 81.5467C164.595 81.4038 164.905 81.2013 165.167 80.9392C165.429 80.6692 165.631 80.3595 165.774 80.0101C165.925 79.6528 166.001 79.2597 166.001 78.8308C166.001 78.402 165.925 78.0129 165.774 77.6635C165.631 77.3061 165.429 76.9964 165.167 76.7343C164.905 76.4643 164.595 76.2579 164.238 76.1149C163.88 75.972 163.491 75.9005 163.07 75.9005C162.649 75.9005 162.26 75.972 161.903 76.1149C161.553 76.2579 161.244 76.4643 160.974 76.7343C160.712 76.9964 160.505 77.3061 160.354 77.6635C160.211 78.0129 160.14 78.402 160.14 78.8308C160.14 79.2517 160.211 79.6408 160.354 79.9982C160.505 80.3556 160.712 80.6692 160.974 80.9392C161.236 81.2013 161.545 81.4038 161.903 81.5467C162.26 81.6897 162.649 81.7612 163.07 81.7612ZM172.577 83V74.6617H176.305C177.242 74.6617 177.973 74.8483 178.497 75.2215C179.021 75.5868 179.283 76.1149 179.283 76.8058C179.283 77.4888 179.033 78.0169 178.533 78.3901C178.033 78.7554 177.374 78.938 176.556 78.938L176.77 78.5092C177.699 78.5092 178.418 78.6958 178.926 79.0691C179.434 79.4423 179.688 79.9823 179.688 80.6891C179.688 81.4117 179.422 81.9795 178.89 82.3925C178.358 82.7975 177.572 83 176.532 83H172.577ZM174.102 81.8088H176.484C177.024 81.8088 177.433 81.7095 177.711 81.511C177.989 81.3045 178.128 80.9909 178.128 80.57C178.128 80.1491 177.989 79.8434 177.711 79.6528C177.433 79.4542 177.024 79.355 176.484 79.355H174.102V81.8088ZM174.102 78.2233H176.174C176.675 78.2233 177.056 78.1241 177.318 77.9255C177.58 77.7191 177.711 77.4252 177.711 77.0441C177.711 76.647 177.58 76.3492 177.318 76.1507C177.056 75.9521 176.675 75.8529 176.174 75.8529H174.102V78.2233ZM184.756 83V74.6617H186.019L189.676 80.7487H188.997L192.594 74.6617H193.857L193.881 83H192.404L192.392 76.9607H192.702L189.652 82.047H188.961L185.864 76.9607H186.222V83H184.756ZM200.086 83.1191C199.435 83.1191 198.835 83.0119 198.287 82.7975C197.739 82.5831 197.263 82.2853 196.858 81.9041C196.453 81.515 196.139 81.0623 195.917 80.5462C195.694 80.022 195.583 79.4503 195.583 78.8308C195.583 78.2114 195.694 77.6436 195.917 77.1274C196.139 76.6033 196.453 76.1507 196.858 75.7695C197.263 75.3804 197.739 75.0786 198.287 74.8642C198.835 74.6498 199.431 74.5426 200.074 74.5426C200.725 74.5426 201.321 74.6498 201.861 74.8642C202.409 75.0786 202.885 75.3804 203.29 75.7695C203.695 76.1507 204.009 76.6033 204.231 77.1274C204.453 77.6436 204.565 78.2114 204.565 78.8308C204.565 79.4503 204.453 80.022 204.231 80.5462C204.009 81.0703 203.695 81.5229 203.29 81.9041C202.885 82.2853 202.409 82.5831 201.861 82.7975C201.321 83.0119 200.729 83.1191 200.086 83.1191ZM200.074 81.7612C200.495 81.7612 200.884 81.6897 201.241 81.5467C201.599 81.4038 201.908 81.2013 202.17 80.9392C202.432 80.6692 202.635 80.3595 202.778 80.0101C202.929 79.6528 203.004 79.2597 203.004 78.8308C203.004 78.402 202.929 78.0129 202.778 77.6635C202.635 77.3061 202.432 76.9964 202.17 76.7343C201.908 76.4643 201.599 76.2579 201.241 76.1149C200.884 75.972 200.495 75.9005 200.074 75.9005C199.653 75.9005 199.264 75.972 198.906 76.1149C198.557 76.2579 198.247 76.4643 197.977 76.7343C197.715 76.9964 197.509 77.3061 197.358 77.6635C197.215 78.0129 197.143 78.402 197.143 78.8308C197.143 79.2517 197.215 79.6408 197.358 79.9982C197.509 80.3556 197.715 80.6692 197.977 80.9392C198.239 81.2013 198.549 81.4038 198.906 81.5467C199.264 81.6897 199.653 81.7612 200.074 81.7612ZM210.112 83.1191C209.477 83.1191 208.885 83.0159 208.337 82.8094C207.797 82.595 207.325 82.2972 206.92 81.916C206.523 81.5269 206.213 81.0703 205.991 80.5462C205.768 80.022 205.657 79.4503 205.657 78.8308C205.657 78.2114 205.768 77.6397 205.991 77.1155C206.213 76.5914 206.527 76.1388 206.932 75.7576C207.337 75.3685 207.809 75.0707 208.349 74.8642C208.889 74.6498 209.481 74.5426 210.124 74.5426C210.807 74.5426 211.431 74.6617 211.994 74.8999C212.558 75.1302 213.035 75.4757 213.424 75.9363L212.423 76.8773C212.121 76.5517 211.784 76.3095 211.411 76.1507C211.037 75.9839 210.632 75.9005 210.196 75.9005C209.759 75.9005 209.358 75.972 208.993 76.1149C208.635 76.2579 208.322 76.4604 208.052 76.7224C207.789 76.9845 207.583 77.2942 207.432 77.6516C207.289 78.0089 207.218 78.402 207.218 78.8308C207.218 79.2597 207.289 79.6528 207.432 80.0101C207.583 80.3675 207.789 80.6772 208.052 80.9392C208.322 81.2013 208.635 81.4038 208.993 81.5467C209.358 81.6897 209.759 81.7612 210.196 81.7612C210.632 81.7612 211.037 81.6818 211.411 81.5229C211.784 81.3562 212.121 81.106 212.423 80.7725L213.424 81.7254C213.035 82.1781 212.558 82.5235 211.994 82.7618C211.431 83 210.803 83.1191 210.112 83.1191ZM220.377 83L217.554 78.938L218.804 78.1638L222.128 83H220.377ZM214.862 83V74.6617H216.386V83H214.862ZM215.922 79.486V78.1519H218.733V79.486H215.922ZM218.947 79.0095L217.53 78.8189L220.377 74.6617H222.021L218.947 79.0095ZM223.191 83V74.6617H226.919C227.856 74.6617 228.587 74.8483 229.111 75.2215C229.635 75.5868 229.897 76.1149 229.897 76.8058C229.897 77.4888 229.647 78.0169 229.147 78.3901C228.647 78.7554 227.987 78.938 227.169 78.938L227.384 78.5092C228.313 78.5092 229.032 78.6958 229.54 79.0691C230.048 79.4423 230.302 79.9823 230.302 80.6891C230.302 81.4117 230.036 81.9795 229.504 82.3925C228.972 82.7975 228.186 83 227.146 83H223.191ZM224.716 81.8088H227.098C227.638 81.8088 228.047 81.7095 228.325 81.511C228.603 81.3045 228.742 80.9909 228.742 80.57C228.742 80.1491 228.603 79.8434 228.325 79.6528C228.047 79.4542 227.638 79.355 227.098 79.355H224.716V81.8088ZM224.716 78.2233H226.788C227.289 78.2233 227.67 78.1241 227.932 77.9255C228.194 77.7191 228.325 77.4252 228.325 77.0441C228.325 76.647 228.194 76.3492 227.932 76.1507C227.67 75.9521 227.289 75.8529 226.788 75.8529H224.716V78.2233ZM233.496 78.128H237.641V79.4026H233.496V78.128ZM233.615 81.7016H238.32V83H232.066V74.6617H238.153V75.9601H233.615V81.7016ZM243.35 83V74.6617H244.875V80.5819L249.354 74.6617H250.795V83H249.271V77.0917L244.792 83H243.35ZM256.437 83V74.6617H257.7L261.357 80.7487H260.678L264.275 74.6617H265.538L265.562 83H264.085L264.073 76.9607H264.382L261.333 82.047H260.642L257.545 76.9607H257.902V83H256.437ZM271.766 83.1191C271.115 83.1191 270.516 83.0119 269.968 82.7975C269.42 82.5831 268.943 82.2853 268.538 81.9041C268.133 81.515 267.82 81.0623 267.597 80.5462C267.375 80.022 267.264 79.4503 267.264 78.8308C267.264 78.2114 267.375 77.6436 267.597 77.1274C267.82 76.6033 268.133 76.1507 268.538 75.7695C268.943 75.3804 269.42 75.0786 269.968 74.8642C270.516 74.6498 271.111 74.5426 271.754 74.5426C272.406 74.5426 273.001 74.6498 273.541 74.8642C274.089 75.0786 274.566 75.3804 274.971 75.7695C275.376 76.1507 275.689 76.6033 275.912 77.1274C276.134 77.6436 276.245 78.2114 276.245 78.8308C276.245 79.4503 276.134 80.022 275.912 80.5462C275.689 81.0703 275.376 81.5229 274.971 81.9041C274.566 82.2853 274.089 82.5831 273.541 82.7975C273.001 83.0119 272.41 83.1191 271.766 83.1191ZM271.754 81.7612C272.175 81.7612 272.564 81.6897 272.922 81.5467C273.279 81.4038 273.589 81.2013 273.851 80.9392C274.113 80.6692 274.316 80.3595 274.458 80.0101C274.609 79.6528 274.685 79.2597 274.685 78.8308C274.685 78.402 274.609 78.0129 274.458 77.6635C274.316 77.3061 274.113 76.9964 273.851 76.7343C273.589 76.4643 273.279 76.2579 272.922 76.1149C272.564 75.972 272.175 75.9005 271.754 75.9005C271.334 75.9005 270.944 75.972 270.587 76.1149C270.238 76.2579 269.928 76.4643 269.658 76.7343C269.396 76.9964 269.189 77.3061 269.039 77.6635C268.896 78.0129 268.824 78.402 268.824 78.8308C268.824 79.2517 268.896 79.6408 269.039 79.9982C269.189 80.3556 269.396 80.6692 269.658 80.9392C269.92 81.2013 270.23 81.4038 270.587 81.5467C270.944 81.6897 271.334 81.7612 271.754 81.7612ZM281.793 83.1191C281.158 83.1191 280.566 83.0159 280.018 82.8094C279.478 82.595 279.006 82.2972 278.601 81.916C278.204 81.5269 277.894 81.0703 277.671 80.5462C277.449 80.022 277.338 79.4503 277.338 78.8308C277.338 78.2114 277.449 77.6397 277.671 77.1155C277.894 76.5914 278.207 76.1388 278.612 75.7576C279.018 75.3685 279.49 75.0707 280.03 74.8642C280.57 74.6498 281.162 74.5426 281.805 74.5426C282.488 74.5426 283.111 74.6617 283.675 74.8999C284.239 75.1302 284.715 75.4757 285.104 75.9363L284.104 76.8773C283.802 76.5517 283.465 76.3095 283.091 76.1507C282.718 75.9839 282.313 75.9005 281.876 75.9005C281.44 75.9005 281.039 75.972 280.673 76.1149C280.316 76.2579 280.002 76.4604 279.732 76.7224C279.47 76.9845 279.264 77.2942 279.113 77.6516C278.97 78.0089 278.898 78.402 278.898 78.8308C278.898 79.2597 278.97 79.6528 279.113 80.0101C279.264 80.3675 279.47 80.6772 279.732 80.9392C280.002 81.2013 280.316 81.4038 280.673 81.5467C281.039 81.6897 281.44 81.7612 281.876 81.7612C282.313 81.7612 282.718 81.6818 283.091 81.5229C283.465 81.3562 283.802 81.106 284.104 80.7725L285.104 81.7254C284.715 82.1781 284.239 82.5235 283.675 82.7618C283.111 83 282.484 83.1191 281.793 83.1191ZM292.057 83L289.234 78.938L290.485 78.1638L293.808 83H292.057ZM286.542 83V74.6617H288.067V83H286.542ZM287.602 79.486V78.1519H290.414V79.486H287.602ZM290.628 79.0095L289.211 78.8189L292.057 74.6617H293.701L290.628 79.0095ZM298.708 83.1191C298.057 83.1191 297.457 83.0119 296.909 82.7975C296.361 82.5831 295.885 82.2853 295.48 81.9041C295.075 81.515 294.761 81.0623 294.539 80.5462C294.316 80.022 294.205 79.4503 294.205 78.8308C294.205 78.2114 294.316 77.6436 294.539 77.1274C294.761 76.6033 295.075 76.1507 295.48 75.7695C295.885 75.3804 296.361 75.0786 296.909 74.8642C297.457 74.6498 298.053 74.5426 298.696 74.5426C299.347 74.5426 299.943 74.6498 300.483 74.8642C301.031 75.0786 301.507 75.3804 301.912 75.7695C302.317 76.1507 302.631 76.6033 302.853 77.1274C303.075 77.6436 303.187 78.2114 303.187 78.8308C303.187 79.4503 303.075 80.022 302.853 80.5462C302.631 81.0703 302.317 81.5229 301.912 81.9041C301.507 82.2853 301.031 82.5831 300.483 82.7975C299.943 83.0119 299.351 83.1191 298.708 83.1191ZM298.696 81.7612C299.117 81.7612 299.506 81.6897 299.863 81.5467C300.221 81.4038 300.53 81.2013 300.792 80.9392C301.054 80.6692 301.257 80.3595 301.4 80.0101C301.551 79.6528 301.626 79.2597 301.626 78.8308C301.626 78.402 301.551 78.0129 301.4 77.6635C301.257 77.3061 301.054 76.9964 300.792 76.7343C300.53 76.4643 300.221 76.2579 299.863 76.1149C299.506 75.972 299.117 75.9005 298.696 75.9005C298.275 75.9005 297.886 75.972 297.528 76.1149C297.179 76.2579 296.869 76.4643 296.599 76.7343C296.337 76.9964 296.131 77.3061 295.98 77.6635C295.837 78.0129 295.765 78.402 295.765 78.8308C295.765 79.2517 295.837 79.6408 295.98 79.9982C296.131 80.3556 296.337 80.6692 296.599 80.9392C296.861 81.2013 297.171 81.4038 297.528 81.5467C297.886 81.6897 298.275 81.7612 298.696 81.7612ZM304.911 83V74.6617H308.639C309.576 74.6617 310.307 74.8483 310.831 75.2215C311.355 75.5868 311.617 76.1149 311.617 76.8058C311.617 77.4888 311.367 78.0169 310.867 78.3901C310.366 78.7554 309.707 78.938 308.889 78.938L309.104 78.5092C310.033 78.5092 310.751 78.6958 311.26 79.0691C311.768 79.4423 312.022 79.9823 312.022 80.6891C312.022 81.4117 311.756 81.9795 311.224 82.3925C310.692 82.7975 309.906 83 308.865 83H304.911ZM306.435 81.8088H308.818C309.358 81.8088 309.767 81.7095 310.045 81.511C310.323 81.3045 310.462 80.9909 310.462 80.57C310.462 80.1491 310.323 79.8434 310.045 79.6528C309.767 79.4542 309.358 79.355 308.818 79.355H306.435V81.8088ZM306.435 78.2233H308.508C309.008 78.2233 309.389 78.1241 309.652 77.9255C309.914 77.7191 310.045 77.4252 310.045 77.0441C310.045 76.647 309.914 76.3492 309.652 76.1507C309.389 75.9521 309.008 75.8529 308.508 75.8529H306.435V78.2233ZM317.622 83.1191C316.986 83.1191 316.395 83.0159 315.847 82.8094C315.307 82.595 314.834 82.2972 314.429 81.916C314.032 81.5269 313.723 81.0703 313.5 80.5462C313.278 80.022 313.167 79.4503 313.167 78.8308C313.167 78.2114 313.278 77.6397 313.5 77.1155C313.723 76.5914 314.036 76.1388 314.441 75.7576C314.846 75.3685 315.319 75.0707 315.859 74.8642C316.399 74.6498 316.99 74.5426 317.634 74.5426C318.317 74.5426 318.94 74.6617 319.504 74.8999C320.068 75.1302 320.544 75.4757 320.933 75.9363L319.933 76.8773C319.631 76.5517 319.293 76.3095 318.92 76.1507C318.547 75.9839 318.142 75.9005 317.705 75.9005C317.268 75.9005 316.867 75.972 316.502 76.1149C316.145 76.2579 315.831 76.4604 315.561 76.7224C315.299 76.9845 315.092 77.2942 314.942 77.6516C314.799 78.0089 314.727 78.402 314.727 78.8308C314.727 79.2597 314.799 79.6528 314.942 80.0101C315.092 80.3675 315.299 80.6772 315.561 80.9392C315.831 81.2013 316.145 81.4038 316.502 81.5467C316.867 81.6897 317.268 81.7612 317.705 81.7612C318.142 81.7612 318.547 81.6818 318.92 81.5229C319.293 81.3562 319.631 81.106 319.933 80.7725L320.933 81.7254C320.544 82.1781 320.068 82.5235 319.504 82.7618C318.94 83 318.313 83.1191 317.622 83.1191ZM327.886 83L325.063 78.938L326.314 78.1638L329.637 83H327.886ZM322.371 83V74.6617H323.896V83H322.371ZM323.431 79.486V78.1519H326.242V79.486H323.431ZM326.457 79.0095L325.039 78.8189L327.886 74.6617H329.53L326.457 79.0095ZM334.536 83.1191C333.885 83.1191 333.286 83.0119 332.738 82.7975C332.19 82.5831 331.713 82.2853 331.308 81.9041C330.903 81.515 330.59 81.0623 330.367 80.5462C330.145 80.022 330.034 79.4503 330.034 78.8308C330.034 78.2114 330.145 77.6436 330.367 77.1274C330.59 76.6033 330.903 76.1507 331.308 75.7695C331.713 75.3804 332.19 75.0786 332.738 74.8642C333.286 74.6498 333.881 74.5426 334.525 74.5426C335.176 74.5426 335.771 74.6498 336.311 74.8642C336.859 75.0786 337.336 75.3804 337.741 75.7695C338.146 76.1507 338.459 76.6033 338.682 77.1274C338.904 77.6436 339.015 78.2114 339.015 78.8308C339.015 79.4503 338.904 80.022 338.682 80.5462C338.459 81.0703 338.146 81.5229 337.741 81.9041C337.336 82.2853 336.859 82.5831 336.311 82.7975C335.771 83.0119 335.18 83.1191 334.536 83.1191ZM334.525 81.7612C334.945 81.7612 335.335 81.6897 335.692 81.5467C336.049 81.4038 336.359 81.2013 336.621 80.9392C336.883 80.6692 337.086 80.3595 337.229 80.0101C337.379 79.6528 337.455 79.2597 337.455 78.8308C337.455 78.402 337.379 78.0129 337.229 77.6635C337.086 77.3061 336.883 76.9964 336.621 76.7343C336.359 76.4643 336.049 76.2579 335.692 76.1149C335.335 75.972 334.945 75.9005 334.525 75.9005C334.104 75.9005 333.715 75.972 333.357 76.1149C333.008 76.2579 332.698 76.4643 332.428 76.7343C332.166 76.9964 331.96 77.3061 331.809 77.6635C331.666 78.0129 331.594 78.402 331.594 78.8308C331.594 79.2517 331.666 79.6408 331.809 79.9982C331.96 80.3556 332.166 80.6692 332.428 80.9392C332.69 81.2013 333 81.4038 333.357 81.5467C333.715 81.6897 334.104 81.7612 334.525 81.7612ZM340.739 83V74.6617H342.264V80.5819L346.743 74.6617H348.184V83H346.66V77.0917L342.181 83H340.739ZM344.444 74.1018C343.729 74.1018 343.189 73.9509 342.824 73.6492C342.467 73.3474 342.284 72.9225 342.276 72.3746H343.36C343.368 72.6684 343.463 72.8947 343.646 73.0536C343.836 73.2124 344.102 73.2918 344.444 73.2918C344.785 73.2918 345.051 73.2124 345.242 73.0536C345.441 72.8947 345.544 72.6684 345.552 72.3746H346.624C346.616 72.9225 346.429 73.3474 346.064 73.6492C345.699 73.9509 345.159 74.1018 344.444 74.1018ZM357.686 83.1191C357.034 83.1191 356.435 83.0119 355.887 82.7975C355.339 82.5831 354.862 82.2853 354.457 81.9041C354.052 81.515 353.739 81.0623 353.516 80.5462C353.294 80.022 353.183 79.4503 353.183 78.8308C353.183 78.2114 353.294 77.6436 353.516 77.1274C353.739 76.6033 354.052 76.1507 354.457 75.7695C354.862 75.3804 355.339 75.0786 355.887 74.8642C356.435 74.6498 357.03 74.5426 357.674 74.5426C358.325 74.5426 358.92 74.6498 359.46 74.8642C360.008 75.0786 360.485 75.3804 360.89 75.7695C361.295 76.1507 361.608 76.6033 361.831 77.1274C362.053 77.6436 362.164 78.2114 362.164 78.8308C362.164 79.4503 362.053 80.022 361.831 80.5462C361.608 81.0703 361.295 81.5229 360.89 81.9041C360.485 82.2853 360.008 82.5831 359.46 82.7975C358.92 83.0119 358.329 83.1191 357.686 83.1191ZM357.674 81.7612C358.094 81.7612 358.484 81.6897 358.841 81.5467C359.198 81.4038 359.508 81.2013 359.77 80.9392C360.032 80.6692 360.235 80.3595 360.378 80.0101C360.528 79.6528 360.604 79.2597 360.604 78.8308C360.604 78.402 360.528 78.0129 360.378 77.6635C360.235 77.3061 360.032 76.9964 359.77 76.7343C359.508 76.4643 359.198 76.2579 358.841 76.1149C358.484 75.972 358.094 75.9005 357.674 75.9005C357.253 75.9005 356.864 75.972 356.506 76.1149C356.157 76.2579 355.847 76.4643 355.577 76.7343C355.315 76.9964 355.109 77.3061 354.958 77.6635C354.815 78.0129 354.743 78.402 354.743 78.8308C354.743 79.2517 354.815 79.6408 354.958 79.9982C355.109 80.3556 355.315 80.6692 355.577 80.9392C355.839 81.2013 356.149 81.4038 356.506 81.5467C356.864 81.6897 357.253 81.7612 357.674 81.7612ZM363.888 83V74.6617H370.38V75.9363H365.413V77.9851H367.879C368.879 77.9851 369.638 78.1955 370.154 78.6164C370.678 79.0294 370.94 79.6329 370.94 80.427C370.94 81.245 370.65 81.8803 370.071 82.3329C369.499 82.7776 368.689 83 367.641 83H363.888ZM365.413 81.8088H367.557C368.153 81.8088 368.605 81.6937 368.915 81.4634C369.225 81.2331 369.38 80.8995 369.38 80.4628C369.38 79.6051 368.772 79.1763 367.557 79.1763H365.413V81.8088ZM372.272 83.1191C372.137 83.1191 372.002 83.1072 371.867 83.0834C371.732 83.0596 371.585 83.0318 371.426 83L371.533 81.654C371.644 81.6857 371.763 81.7016 371.89 81.7016C372.224 81.7016 372.49 81.5666 372.689 81.2966C372.887 81.0187 373.03 80.6137 373.117 80.0816C373.205 79.5495 373.264 78.8944 373.296 78.1161L373.415 74.6617H379.55V83H378.025V75.5908L378.382 75.972H374.416L374.749 75.5789L374.666 78.0566C374.642 78.8825 374.587 79.6091 374.499 80.2364C374.412 80.8638 374.277 81.3919 374.094 81.8207C373.919 82.2416 373.685 82.5632 373.391 82.7856C373.098 83.0079 372.724 83.1191 372.272 83.1191ZM380.835 83L384.588 74.6617H386.112L389.876 83H388.256L385.028 75.4836H385.648L382.432 83H380.835ZM382.563 81.0703L382.979 79.8553H387.482L387.899 81.0703H382.563ZM394.874 83.1191C394.239 83.1191 393.648 83.0159 393.1 82.8094C392.56 82.595 392.087 82.2972 391.682 81.916C391.285 81.5269 390.975 81.0703 390.753 80.5462C390.531 80.022 390.419 79.4503 390.419 78.8308C390.419 78.2114 390.531 77.6397 390.753 77.1155C390.975 76.5914 391.289 76.1388 391.694 75.7576C392.099 75.3685 392.571 75.0707 393.111 74.8642C393.651 74.6498 394.243 74.5426 394.886 74.5426C395.569 74.5426 396.193 74.6617 396.757 74.8999C397.32 75.1302 397.797 75.4757 398.186 75.9363L397.185 76.8773C396.884 76.5517 396.546 76.3095 396.173 76.1507C395.8 75.9839 395.395 75.9005 394.958 75.9005C394.521 75.9005 394.12 75.972 393.755 76.1149C393.397 76.2579 393.084 76.4604 392.814 76.7224C392.552 76.9845 392.345 77.2942 392.194 77.6516C392.051 78.0089 391.98 78.402 391.98 78.8308C391.98 79.2597 392.051 79.6528 392.194 80.0101C392.345 80.3675 392.552 80.6772 392.814 80.9392C393.084 81.2013 393.397 81.4038 393.755 81.5467C394.12 81.6897 394.521 81.7612 394.958 81.7612C395.395 81.7612 395.8 81.6818 396.173 81.5229C396.546 81.3562 396.884 81.106 397.185 80.7725L398.186 81.7254C397.797 82.1781 397.32 82.5235 396.757 82.7618C396.193 83 395.565 83.1191 394.874 83.1191ZM401.282 83V75.5908L401.651 75.972H398.53V74.6617H405.582V75.972H402.461L402.818 75.5908V83H401.282ZM406.929 83V74.6617H408.454V80.5819L412.933 74.6617H414.374V83H412.85V77.0917L408.371 83H406.929Z" fill="black"/>
<path d="M15.1631 31.9648C16.6216 31.9648 18.0395 31.6813 19.417 31.1141C20.7944 30.5469 21.9895 29.7772 23.0023 28.8049C24.0556 27.7921 24.8861 26.6375 25.4938 25.3411C26.142 24.0041 26.4661 22.6065 26.4661 21.148C26.4661 19.6896 26.142 18.3121 25.4938 17.0157C24.8861 15.6788 24.0556 14.5242 23.0023 13.5519C21.9895 12.5391 20.7944 11.7491 19.417 11.1819C18.0395 10.6148 16.6216 10.3312 15.1631 10.3312H1.00403V10.9389C2.17889 10.9389 2.94863 11.2832 3.31324 11.9719C3.67785 12.6606 3.88041 13.5317 3.92093 14.585V47.947C3.92093 48.4737 3.88041 49.0004 3.79939 49.527C3.75888 50.0537 3.63734 50.5196 3.43478 50.9247C3.23221 51.2893 2.92837 51.6134 2.52325 51.897C2.15863 52.1401 1.65223 52.2616 1.00403 52.2616V52.8693H3.92093H8.29627H11.2132V52.2616C10.565 52.2616 10.0383 52.1401 9.63318 51.897C9.26857 51.6539 8.98499 51.3501 8.78242 50.9855C8.57986 50.5803 8.43807 50.1347 8.35704 49.6485C8.31653 49.1219 8.29627 48.5547 8.29627 47.947V46.3063V31.9648H11.517C12.7729 31.9648 13.806 32.2687 14.6162 32.8764C15.467 33.4841 16.1557 34.2741 16.6824 35.2464C17.2495 36.2187 17.7154 37.3328 18.08 38.5886C18.4852 39.8445 18.8903 41.1207 19.2954 42.4171C19.7005 43.7135 20.1462 44.9896 20.6323 46.2455C21.1185 47.5014 21.7464 48.6155 22.5162 49.5878C23.2859 50.5601 24.2379 51.3501 25.3723 51.9578C26.5066 52.5655 27.9043 52.8693 29.5653 52.8693C30.254 52.8693 31.0035 52.8288 31.8138 52.7478C32.6645 52.6262 33.5558 52.4237 34.4876 52.1401C32.1379 52.1401 30.2743 51.7147 28.8969 50.8639C27.56 49.9726 26.4864 48.8586 25.6761 47.5216C24.9064 46.1847 24.2582 44.706 23.7315 43.0855C23.2454 41.465 22.6782 39.9053 22.03 38.4063C21.3818 36.9074 20.5513 35.5705 19.5385 34.3956C18.5257 33.2207 17.0672 32.4105 15.1631 31.9648ZM8.29627 11.0604H14.4339C15.6493 11.0604 16.7431 11.3642 17.7154 11.9719C18.7282 12.5391 19.579 13.3088 20.2677 14.2811C20.9969 15.2129 21.5439 16.2865 21.9085 17.5019C22.2731 18.7173 22.4554 19.9326 22.4554 21.148C22.4554 22.5254 22.2731 23.8421 21.9085 25.098C21.5439 26.3134 21.0172 27.3869 20.3285 28.3187C19.6398 29.21 18.8093 29.919 17.837 30.4456C16.9052 30.9723 15.8316 31.2356 14.6162 31.2356H14.4339H8.29627V11.0604Z" fill="#2372DB"/>
<path d="M43.0071 47.947V23.2749H42.3994C41.5081 23.8421 40.232 24.2675 38.571 24.5511C38.0443 24.6321 37.5987 24.6929 37.234 24.7334C36.9099 24.7334 36.4035 24.7334 35.7148 24.7334V25.2803C36.8897 25.3208 37.6797 25.6449 38.0848 26.2526C38.4899 26.8198 38.6925 27.6705 38.6925 28.8049V47.947C38.6925 48.4737 38.652 49.0004 38.571 49.527C38.5304 50.0132 38.4089 50.4588 38.2063 50.8639C38.0038 51.269 37.6999 51.6134 37.2948 51.897C36.9302 52.1401 36.4238 52.2616 35.7756 52.2616V52.8693H45.924V52.2616C44.6276 52.2211 43.8173 51.7957 43.4932 50.9855C43.1691 50.1347 43.0071 49.1219 43.0071 47.947Z" fill="#2372DB"/>
<path d="M92.3983 47.3393V23.2749H91.7298C90.9196 23.8421 89.6637 24.2472 87.9622 24.4903C87.4355 24.5713 86.9899 24.6321 86.6252 24.6726C86.2606 24.7131 85.734 24.7334 85.0453 24.7334V25.2803C86.2201 25.3208 87.0101 25.6246 87.4152 26.1918C87.8204 26.759 88.0229 27.63 88.0229 28.8049V45.8809C87.0101 47.6229 85.6124 49.0814 83.8299 50.2562C82.1284 51.4311 80.2445 52.0185 78.1784 52.0185C76.882 52.0185 75.7679 51.7755 74.8361 51.2893C74.0664 50.8842 73.4384 50.3575 72.9523 49.7093C72.5067 49.0611 72.142 48.3724 71.8585 47.6432C71.5749 46.8734 71.3723 46.0835 71.2508 45.2732C71.1697 44.4224 71.1292 43.6122 71.1292 42.8425V28.8049V23.2749H70.5215C69.6303 23.8421 68.3541 24.2472 66.6931 24.4903C66.1665 24.5713 65.7208 24.6321 65.3562 24.6726C65.0321 24.7131 64.5257 24.7334 63.837 24.7334V25.2803C65.0118 25.3208 65.8018 25.6246 66.207 26.1918C66.6121 26.759 66.8146 27.63 66.8146 28.8049V42.0525C66.8146 43.5919 67.078 45.0301 67.6046 46.367C68.1313 47.6634 68.8605 48.7978 69.7923 49.7701C70.7646 50.7424 71.899 51.5121 73.1954 52.0793C74.5323 52.606 75.9907 52.8693 77.5707 52.8693C78.8671 52.8693 80.0217 52.7275 81.0345 52.4439C82.0878 52.1603 83.0196 51.816 83.8299 51.4108C84.6806 51.0057 85.3896 50.5803 85.9568 50.1347C86.5645 49.6891 87.0506 49.3244 87.4152 49.0409C87.5368 48.8788 87.6583 48.7978 87.7799 48.7978C87.9419 48.7978 88.0229 48.9801 88.0229 49.3447V52.8693H88.6306C89.5219 52.3021 90.798 51.8767 92.459 51.5931C92.9857 51.5121 93.4111 51.4716 93.7352 51.4716C94.0998 51.4311 94.6264 51.4108 95.3152 51.4108V50.8639C94.1808 50.8234 93.4111 50.5196 93.006 49.9524C92.6008 49.3447 92.3983 48.4737 92.3983 47.3393Z" fill="#2372DB"/>
<path d="M121.723 47.3393V33.4841C121.723 31.8231 121.379 30.3038 120.69 28.9264C119.88 27.1844 118.604 25.807 116.862 24.7941C116.295 24.47 115.687 24.1865 115.039 23.9434C114.431 23.7003 113.783 23.5382 113.094 23.4572C112.325 23.3357 111.535 23.2749 110.724 23.2749C109.428 23.2749 108.152 23.4572 106.896 23.8218C105.681 24.1459 104.506 24.6321 103.371 25.2803C102.48 25.7664 101.629 26.3741 100.819 27.1033C100.981 27.4274 101.143 27.7515 101.305 28.0756C101.467 28.3592 101.65 28.6631 101.852 28.9872C101.812 28.9062 101.893 28.7441 102.095 28.501C102.338 28.2174 102.5 28.0554 102.581 28.0149C102.784 27.7718 102.986 27.5692 103.189 27.4072C103.392 27.2046 103.594 27.0021 103.797 26.7995C104.931 25.9082 106.187 25.179 107.564 24.6118C108.82 24.1662 110.096 23.9434 111.393 23.9434C112.77 23.9434 114.006 24.2067 115.1 24.7334C115.869 25.098 116.457 25.6246 116.862 26.3134C117.267 27.0021 117.51 27.7516 117.591 28.5618C117.713 29.3315 117.652 30.1215 117.409 30.9318C117.166 31.7015 116.761 32.37 116.193 32.9371C116.193 32.9777 116.173 32.9979 116.133 32.9979C115.16 33.9702 113.905 34.7602 112.365 35.3679C111.595 35.692 110.805 35.9756 109.995 36.2187C109.225 36.4617 108.395 36.7048 107.504 36.9479C107.098 37.0694 106.369 37.3328 105.316 37.7379C104.303 38.1025 103.27 38.6494 102.217 39.3786C101.163 40.1079 100.232 41.0396 99.4213 42.174C98.6111 43.2678 98.2059 44.6047 98.2059 46.1847C98.2059 47.5622 98.5301 48.7978 99.1783 49.8916C99.867 50.945 100.839 51.7755 102.095 52.3831C103.675 53.1529 105.417 53.5378 107.321 53.5378C108.213 53.5378 109.084 53.4567 109.934 53.2947C110.826 53.1326 111.697 52.8895 112.547 52.5654C114.33 51.9172 115.788 50.7626 116.923 49.1016C117.125 48.8991 117.227 48.818 117.227 48.8586C117.308 48.8991 117.348 48.9801 117.348 49.1016V52.8693H117.895C117.976 52.7883 118.057 52.7478 118.138 52.7478C118.219 52.7072 118.32 52.6465 118.442 52.5654C118.766 52.3629 119.212 52.1603 119.779 51.9578C120.346 51.7552 120.994 51.5932 121.723 51.4716C122.048 51.4311 122.372 51.4108 122.696 51.4108C123.06 51.3703 123.425 51.3501 123.79 51.3501H124.64V50.8032C123.506 50.7626 122.736 50.4588 122.331 49.8916C121.967 49.2839 121.764 48.4332 121.723 47.3393ZM117.348 46.2455C117.186 46.6911 116.983 47.1165 116.74 47.5216C116.538 47.9268 116.295 48.3319 116.011 48.737C115.403 49.5473 114.755 50.236 114.067 50.8032C113.256 51.4108 112.446 51.897 111.636 52.2616C110.745 52.6262 109.813 52.8085 108.84 52.8085C107.787 52.8085 106.855 52.5857 106.045 52.1401C105.235 51.6944 104.587 51.107 104.101 50.3778C103.574 49.6891 103.189 48.8586 102.946 47.8863C102.703 46.9545 102.581 46.0024 102.581 45.0301C102.581 43.4096 102.865 42.1537 103.432 41.2625C103.959 40.3712 104.688 39.6015 105.62 38.9533C106.511 38.3456 107.524 37.8594 108.658 37.4948C109.225 37.2922 109.793 37.0897 110.36 36.8871C110.927 36.6846 111.494 36.482 112.061 36.2794C112.628 36.0769 113.155 35.854 113.641 35.611C114.168 35.3679 114.654 35.0843 115.1 34.7602C116.031 34.2335 116.781 33.4638 117.348 32.451V46.2455Z" fill="#2372DB"/>
<path d="M133.918 47.947V13.5519H133.311C132.42 14.1191 131.143 14.5242 129.482 14.7673C128.956 14.8483 128.51 14.9091 128.145 14.9496C127.821 14.9901 127.315 15.0104 126.626 15.0104V15.5573C127.801 15.5978 128.591 15.9016 128.996 16.4688C129.401 17.036 129.604 17.907 129.604 19.0819V47.947C129.604 48.4737 129.563 49.0004 129.482 49.527C129.442 50.0132 129.32 50.4588 129.118 50.8639C128.915 51.269 128.611 51.6134 128.206 51.897C127.842 52.1401 127.335 52.2616 126.687 52.2616V52.8693H136.835V52.2616C135.539 52.2211 134.729 51.7957 134.405 50.9855C134.081 50.1347 133.918 49.1219 133.918 47.947Z" fill="#2372DB"/>
<path d="M154.333 33.9094V32.0256H139.809V33.9094H154.333Z" fill="#2372DB"/>
<path d="M171.832 31.9648C173.291 31.9648 174.709 31.6813 176.086 31.1141C177.464 30.5469 178.659 29.7772 179.672 28.8049C180.725 27.7921 181.555 26.6375 182.163 25.3411C182.811 24.0041 183.135 22.6065 183.135 21.148C183.135 19.6896 182.811 18.3121 182.163 17.0157C181.555 15.6788 180.725 14.5242 179.672 13.5519C178.659 12.5391 177.464 11.7491 176.086 11.1819C174.709 10.6148 173.291 10.3312 171.832 10.3312H157.673V10.9389C158.848 10.9389 159.618 11.2832 159.983 11.9719C160.347 12.6606 160.55 13.5317 160.59 14.585V47.947C160.59 48.4737 160.55 49.0004 160.469 49.527C160.428 50.0537 160.307 50.5196 160.104 50.9247C159.902 51.2893 159.598 51.6134 159.193 51.897C158.828 52.1401 158.322 52.2616 157.673 52.2616V52.8693H160.59H164.966H167.882V52.2616C167.234 52.2616 166.708 52.1401 166.303 51.897C165.938 51.6539 165.654 51.3501 165.452 50.9855C165.249 50.5803 165.107 50.1347 165.026 49.6485C164.986 49.1219 164.966 48.5547 164.966 47.947V46.3063V31.9648H168.186C169.442 31.9648 170.475 32.2687 171.286 32.8764C172.136 33.4841 172.825 34.2741 173.352 35.2464C173.919 36.2187 174.385 37.3328 174.749 38.5886C175.154 39.8445 175.56 41.1207 175.965 42.4171C176.37 43.7135 176.815 44.9896 177.302 46.2455C177.788 47.5014 178.416 48.6155 179.185 49.5878C179.955 50.5601 180.907 51.3501 182.042 51.9578C183.176 52.5655 184.574 52.8693 186.235 52.8693C186.923 52.8693 187.673 52.8288 188.483 52.7478C189.334 52.6262 190.225 52.4237 191.157 52.1401C188.807 52.1401 186.944 51.7147 185.566 50.8639C184.229 49.9726 183.156 48.8586 182.345 47.5216C181.576 46.1847 180.928 44.706 180.401 43.0855C179.915 41.465 179.348 39.9053 178.699 38.4063C178.051 36.9074 177.221 35.5705 176.208 34.3956C175.195 33.2207 173.737 32.4105 171.832 31.9648ZM164.966 11.0604H171.103C172.319 11.0604 173.412 11.3642 174.385 11.9719C175.398 12.5391 176.248 13.3088 176.937 14.2811C177.666 15.2129 178.213 16.2865 178.578 17.5019C178.942 18.7173 179.125 19.9326 179.125 21.148C179.125 22.5254 178.942 23.8421 178.578 25.098C178.213 26.3134 177.687 27.3869 176.998 28.3187C176.309 29.21 175.479 29.919 174.506 30.4456C173.575 30.9723 172.501 31.2356 171.286 31.2356H171.103H164.966V11.0604Z" fill="#2372DB"/>
<path d="M213.345 46.0632C212.453 47.8457 211.096 49.2434 209.273 50.2562C207.45 51.2285 205.505 51.7147 203.439 51.7147C201.13 51.7147 199.104 51.0665 197.362 49.7701C195.661 48.4737 194.405 46.7722 193.595 44.6655C193.311 43.9768 193.088 43.2881 192.926 42.5994C192.764 41.8702 192.643 41.1207 192.562 40.3509C192.562 39.9458 192.724 39.723 193.048 39.6825C194.871 39.3584 196.471 38.9533 197.849 38.4671C199.226 37.981 200.381 37.5151 201.312 37.0694C202.042 36.7453 202.953 36.2794 204.047 35.6717C205.141 35.0641 206.154 34.3551 207.085 33.5448C208.058 32.6941 208.827 31.7623 209.395 30.7495C209.962 29.6961 210.083 28.6023 209.759 27.468C209.395 26.1716 208.443 25.1588 206.903 24.4295C205.404 23.6598 203.682 23.2749 201.738 23.2749C199.631 23.2749 197.626 23.7206 195.722 24.6118C194.263 25.3005 193.007 26.2526 191.954 27.468C190.901 28.6428 190.05 29.9392 189.402 31.3572C188.835 32.7346 188.429 34.193 188.186 35.7325C187.984 37.272 187.964 38.8115 188.126 40.3509C188.288 41.8499 188.632 43.3083 189.159 44.7263C189.726 46.1442 190.496 47.4406 191.468 48.6155C192.764 50.1144 194.324 51.2488 196.147 52.0185C197.97 52.7477 199.874 53.1124 201.859 53.1124C203.682 53.1124 205.465 52.8085 207.207 52.2008C208.99 51.5526 210.529 50.6006 211.825 49.3447C212.393 48.7775 212.838 48.2306 213.162 47.7039C213.527 47.1368 213.831 46.6304 214.074 46.1847L213.345 46.0632ZM192.379 38.3456C192.379 37.0897 192.541 35.5907 192.866 33.8487C193.19 32.1066 193.696 30.5469 194.385 29.1695C195.155 27.6705 196.107 26.4552 197.241 25.5234C198.416 24.5511 199.874 24.0649 201.616 24.0649C202.629 24.0649 203.52 24.3282 204.29 24.8549C205.019 25.4221 205.546 26.131 205.87 26.9818C206.154 27.8326 206.174 28.8251 205.931 29.9595C205.769 31.0128 205.181 32.1066 204.169 33.241C203.277 34.3348 201.92 35.3882 200.097 36.401C198.314 37.4543 196.046 38.3051 193.291 38.9533C193.21 38.9533 193.149 38.9735 193.109 39.014C193.068 39.014 193.028 39.014 192.987 39.014C192.582 39.014 192.379 38.7912 192.379 38.3456Z" fill="#2372DB"/>
<path d="M222.223 47.947V11.9719H221.615C220.724 12.5391 219.448 12.9442 217.787 13.1873C217.26 13.2683 216.815 13.3291 216.45 13.3696C216.126 13.4101 215.619 13.4304 214.931 13.4304V13.9773C216.106 14.0178 216.896 14.3217 217.301 14.8888C217.706 15.456 217.908 16.327 217.908 17.5019V47.947C217.908 48.4737 217.868 49.0004 217.787 49.527C217.746 50.0132 217.625 50.4588 217.422 50.8639C217.22 51.269 216.916 51.6134 216.511 51.897C216.146 52.1401 215.64 52.2616 214.992 52.2616V52.8693H225.14V52.2616C223.844 52.2211 223.033 51.7957 222.709 50.9855C222.385 50.1347 222.223 49.1219 222.223 47.947Z" fill="#2372DB"/>
<path d="M237.751 47.947V23.2749H237.143C236.252 23.8421 234.976 24.2675 233.315 24.5511C232.788 24.6321 232.342 24.6929 231.978 24.7334C231.654 24.7334 231.147 24.7334 230.458 24.7334V25.2803C231.633 25.3208 232.423 25.6449 232.828 26.2526C233.233 26.8198 233.436 27.6705 233.436 28.8049V47.947C233.436 48.4737 233.396 49.0004 233.315 49.527C233.274 50.0132 233.152 50.4588 232.95 50.8639C232.747 51.269 232.443 51.6134 232.038 51.897C231.674 52.1401 231.167 52.2616 230.519 52.2616V52.8693H240.668V52.2616C239.371 52.2211 238.561 51.7957 238.237 50.9855C237.913 50.1347 237.751 49.1219 237.751 47.947Z" fill="#2372DB"/>
<path d="M282.043 47.947V23.2749H281.435C280.584 23.8016 279.308 24.227 277.607 24.5511C277.08 24.6321 276.635 24.6929 276.27 24.7334C275.946 24.7334 275.439 24.7334 274.751 24.7334V25.2803C275.885 25.3208 276.655 25.6449 277.06 26.2526C277.465 26.8198 277.668 27.6705 277.668 28.8049V47.947C277.668 48.4737 277.627 49.0004 277.546 49.527C277.506 50.0132 277.384 50.4588 277.181 50.8639C276.979 51.269 276.675 51.6134 276.27 51.897C275.905 52.1401 275.399 52.2616 274.751 52.2616V52.8693H284.96V52.2616C283.663 52.2211 282.853 51.7957 282.529 50.9855C282.205 50.1347 282.043 49.1219 282.043 47.947ZM276.452 18.2311C276.452 19.0414 276.716 19.7098 277.242 20.2365C277.769 20.7631 278.437 21.0265 279.248 21.0265C280.139 21.0265 280.828 20.7226 281.314 20.1149C281.8 19.5073 282.043 18.8793 282.043 18.2311C282.043 17.5424 281.881 16.9347 281.557 16.4081C281.273 15.8814 280.888 15.4358 280.402 15.0711C279.916 14.666 279.369 14.3419 278.761 14.0988C278.194 13.8558 277.627 13.6735 277.06 13.5519C276.695 13.4709 276.31 13.4101 275.905 13.3696C275.541 13.3291 275.176 13.3088 274.811 13.3088C274.123 13.3088 273.434 13.3696 272.745 13.4912C272.178 13.6127 271.611 13.7747 271.044 13.9773C270.517 14.1394 270.011 14.3824 269.525 14.7065C268.593 15.2737 267.762 15.9827 267.033 16.8334C266.344 17.6842 265.716 18.5755 265.149 19.5073C264.623 20.4796 264.217 21.4316 263.934 22.3634C263.853 22.6065 263.772 22.8698 263.691 23.1534C263.61 23.3965 263.529 23.6598 263.448 23.9434C263.407 24.0244 263.387 24.1054 263.387 24.1865C263.387 24.2675 263.367 24.3485 263.326 24.4295C261.544 23.6598 259.64 23.2749 257.614 23.2749C255.791 23.2749 254.069 23.599 252.449 24.2472C250.869 24.8954 249.471 25.7664 248.256 26.8603C247.04 27.9541 246.088 29.2505 245.399 30.7495C244.711 32.2079 244.366 33.7677 244.366 35.4287C244.366 37.0492 244.69 38.5886 245.339 40.0471C246.027 41.5055 247 42.8222 248.256 43.9971C248.377 44.1186 248.499 44.2401 248.62 44.3617C248.742 44.4832 248.883 44.5845 249.046 44.6655C248.64 44.7871 248.154 44.9896 247.587 45.2732C247.06 45.5568 246.554 45.9417 246.068 46.4278C245.582 46.914 245.156 47.5216 244.792 48.2509C244.468 48.9801 244.306 49.8714 244.306 50.9247C244.306 51.5729 244.427 52.2819 244.67 53.0516C244.954 53.8618 245.379 54.5911 245.946 55.2393C246.513 55.928 247.263 56.4952 248.195 56.9408C249.127 57.3864 250.261 57.6092 251.598 57.6092C253.299 57.6092 254.798 57.2852 256.095 56.637C257.432 56.0293 258.688 55.3811 259.862 54.6924C260.835 54.1252 261.766 53.5985 262.658 53.1124C263.59 52.6667 264.582 52.4439 265.635 52.4439C266.972 52.4439 268.005 52.9098 268.735 53.8416C269.302 54.4898 269.646 55.2595 269.768 56.1508C269.889 57.0421 269.889 57.8321 269.768 58.5208C269.646 59.2095 269.423 59.878 269.099 60.5262C268.775 61.2149 268.35 61.8225 267.823 62.3492C267.337 62.9164 266.729 63.362 266 63.6861C265.311 64.0507 264.501 64.233 263.569 64.233C260.774 64.233 258.627 63.0987 257.128 60.83L256.885 61.0731C257.087 61.5187 257.351 61.9846 257.675 62.4708C258.039 62.9569 258.485 63.3823 259.012 63.7469C259.538 64.152 260.166 64.4761 260.895 64.7192C261.665 65.0028 262.556 65.1446 263.569 65.1446C264.785 65.1446 265.919 64.8812 266.972 64.3546C268.026 63.8684 268.937 63.2 269.707 62.3492C270.517 61.4984 271.145 60.4856 271.591 59.3108C272.036 58.1764 272.259 56.9611 272.259 55.6646C272.259 54.4088 272.036 53.3352 271.591 52.4439C271.186 51.5121 270.659 50.7424 270.011 50.1347C269.403 49.527 268.714 49.0814 267.945 48.7978C267.215 48.5142 266.506 48.3724 265.818 48.3724C264.481 48.3724 263.205 48.6762 261.989 49.2839C260.814 49.8916 259.66 50.5601 258.525 51.2893C257.351 52.0185 256.155 52.687 254.94 53.2947C253.725 53.9024 252.449 54.2062 251.112 54.2062C250.463 54.2062 249.815 54.1049 249.167 53.9024C248.519 53.7403 247.931 53.477 247.405 53.1124C246.919 52.7478 246.513 52.2819 246.189 51.7147C245.865 51.1475 245.703 50.479 245.703 49.7093C245.703 49.0206 245.845 48.4129 246.129 47.8863C246.453 47.3596 246.817 46.914 247.222 46.5493C247.668 46.1847 248.134 45.9011 248.62 45.6986C249.147 45.496 249.592 45.3947 249.957 45.3947H250.018C252.287 46.8937 254.819 47.6432 257.614 47.6432C259.396 47.6432 261.078 47.3393 262.658 46.7317C264.278 46.0835 265.716 45.1719 266.972 43.9971C268.269 42.8222 269.241 41.5055 269.889 40.0471C270.537 38.5886 270.861 37.0492 270.861 35.4287C270.861 33.1195 270.213 31.0331 268.917 29.1695C267.661 27.2654 266 25.7867 263.934 24.7334C264.055 23.3154 264.379 22.019 264.906 20.8442C265.433 19.6288 266.081 18.5755 266.851 17.6842C267.661 16.7524 268.573 16.0029 269.585 15.4358C270.598 14.8281 271.651 14.4432 272.745 14.2811C273.475 14.1596 274.184 14.0988 274.872 14.0988C276.655 14.0988 278.032 14.5242 279.004 15.375C278.154 15.456 277.506 15.8004 277.06 16.4081C276.655 16.9752 276.452 17.5829 276.452 18.2311ZM266.79 35.4287C266.749 36.6035 266.547 37.8594 266.182 39.1963C265.818 40.5332 265.25 41.7689 264.481 42.9032C263.752 44.0376 262.82 44.9896 261.685 45.7593C260.592 46.4886 259.295 46.8532 257.796 46.8532H257.614H257.492C255.345 46.8532 253.482 46.0632 251.902 44.4832C250.848 43.3894 249.998 42.0322 249.349 40.4117C248.742 38.7912 248.438 37.1302 248.438 35.4287C248.438 33.7271 248.742 32.0661 249.349 30.4456C249.957 28.8251 250.788 27.4882 251.841 26.4349C253.38 24.8549 255.264 24.0649 257.492 24.0649H257.735C259.153 24.0649 260.409 24.4093 261.503 25.098C262.637 25.7462 263.59 26.6172 264.359 27.711C265.129 28.7644 265.716 29.9797 266.122 31.3572C266.527 32.6941 266.749 34.0512 266.79 35.4287Z" fill="#2372DB"/>
<path d="M301.261 23.2749C299.194 23.2749 297.23 23.68 295.366 24.4903C293.543 25.3005 291.943 26.3944 290.565 27.7718C289.228 29.1087 288.155 30.709 287.345 32.5725C286.575 34.3956 286.19 36.3402 286.19 38.4063C286.19 40.4725 286.575 42.4373 287.345 44.3009C288.155 46.124 289.228 47.7242 290.565 49.1016C291.943 50.4385 293.543 51.5121 295.366 52.3224C297.23 53.1326 299.194 53.5378 301.261 53.5378C303.327 53.5378 305.271 53.1326 307.094 52.3224C308.958 51.5121 310.558 50.4385 311.895 49.1016C313.273 47.7242 314.346 46.124 315.116 44.3009C315.926 42.4373 316.331 40.4725 316.331 38.4063C316.331 36.3402 315.926 34.3956 315.116 32.5725C314.346 30.709 313.273 29.1087 311.895 27.7718C310.558 26.3944 308.958 25.3005 307.094 24.4903C305.271 23.68 303.327 23.2749 301.261 23.2749ZM301.261 52.9301C299.519 52.9706 297.959 52.5452 296.581 51.6539C295.244 50.7221 294.13 49.5473 293.239 48.1293C292.348 46.7114 291.679 45.1517 291.234 43.4501C290.788 41.7081 290.565 40.0268 290.565 38.4063C290.565 36.7048 290.788 35.0033 291.234 33.3018C291.679 31.5597 292.348 30 293.239 28.6226C294.13 27.2046 295.244 26.05 296.581 25.1588C297.959 24.2675 299.519 23.8421 301.261 23.8826C302.962 23.8421 304.461 24.2675 305.757 25.1588C307.094 26.05 308.208 27.2046 309.1 28.6226C310.032 30 310.72 31.5597 311.166 33.3018C311.652 35.0033 311.915 36.7048 311.956 38.4063C311.915 40.0268 311.652 41.7081 311.166 43.4501C310.72 45.1517 310.032 46.7114 309.1 48.1293C308.208 49.5473 307.094 50.7221 305.757 51.6539C304.461 52.5452 302.962 52.9706 301.261 52.9301Z" fill="#2372DB"/>
<path d="M346.315 47.947V34.0918C346.315 32.5523 346.052 31.1343 345.525 29.8379C344.999 28.501 344.249 27.3464 343.277 26.3741C342.345 25.4018 341.211 24.6523 339.874 24.1257C338.577 23.5585 337.139 23.2749 335.559 23.2749C334.263 23.2749 333.088 23.4167 332.035 23.7003C330.981 23.9839 330.05 24.3282 329.239 24.7334C328.429 25.1385 327.72 25.5639 327.112 26.0095C326.545 26.4146 326.079 26.759 325.715 27.0426C325.512 27.2451 325.37 27.3464 325.289 27.3464C325.127 27.3464 325.046 27.1641 325.046 26.7995V23.2749H324.439C323.547 23.8421 322.271 24.2675 320.61 24.5511C320.083 24.6321 319.638 24.6929 319.273 24.7334C318.949 24.7334 318.443 24.7334 317.754 24.7334V25.2803C318.929 25.3208 319.719 25.6449 320.124 26.2526C320.529 26.8198 320.732 27.6705 320.732 28.8049V47.947C320.732 48.4737 320.691 49.0004 320.61 49.527C320.57 50.0132 320.448 50.4588 320.246 50.8639C320.043 51.269 319.739 51.6134 319.334 51.897C318.969 52.1401 318.463 52.2616 317.815 52.2616V52.8693H327.963V52.2616C326.667 52.2211 325.857 51.7957 325.532 50.9855C325.208 50.1347 325.046 49.1219 325.046 47.947V30.2633C326.1 28.4808 327.497 27.0223 329.239 25.888C330.941 24.7131 332.825 24.1257 334.891 24.1257C336.147 24.1257 337.261 24.3485 338.233 24.7941C339.003 25.1993 339.631 25.7259 340.117 26.3741C340.603 27.0223 340.968 27.7313 341.211 28.501C341.494 29.2708 341.677 30.081 341.758 30.9318C341.879 31.742 341.94 32.532 341.94 33.3018V46.367V47.947C341.94 48.4737 341.899 49.0004 341.818 49.527C341.778 50.0132 341.656 50.4588 341.454 50.8639C341.251 51.269 340.947 51.6134 340.542 51.897C340.178 52.1401 339.671 52.2616 339.023 52.2616V52.8693H349.171V52.2616C348.523 52.2616 348.017 52.1401 347.652 51.897C347.288 51.6539 347.004 51.3501 346.801 50.9855C346.599 50.5803 346.457 50.1347 346.376 49.6485C346.336 49.1219 346.315 48.5547 346.315 47.947Z" fill="#2372DB"/>
<path d="M352.791 48.1293C352.143 48.1293 351.596 48.3724 351.151 48.8586C350.705 49.3042 350.482 49.8511 350.482 50.4993C350.482 51.1475 350.705 51.7147 351.151 52.2008C351.596 52.6465 352.143 52.8693 352.791 52.8693C353.44 52.8693 353.987 52.6465 354.432 52.2008C354.878 51.7147 355.101 51.1475 355.101 50.4993C355.101 49.8511 354.878 49.3042 354.432 48.8586C353.987 48.3724 353.44 48.1293 352.791 48.1293Z" fill="#2372DB"/>
<path d="M377.883 23.0318C376.465 23.0318 375.128 23.3154 373.872 23.8826C372.454 24.4903 371.198 25.3208 370.104 26.3741C369.983 26.4957 369.861 26.5564 369.74 26.5564C369.537 26.5564 369.436 26.3539 369.436 25.9487V23.2749H368.828C367.937 23.8421 366.661 24.2675 365 24.5511C364.473 24.6321 364.028 24.6929 363.663 24.7334C363.339 24.7334 362.832 24.7334 362.144 24.7334V25.2803C363.319 25.3208 364.109 25.6449 364.514 26.2526C364.919 26.8198 365.121 27.6705 365.121 28.8049V47.947C365.121 48.4737 365.081 49.0004 365 49.527C364.959 50.0132 364.838 50.4588 364.635 50.8639C364.433 51.269 364.129 51.6134 363.724 51.897C363.359 52.1401 362.853 52.2616 362.204 52.2616V52.8693H372.353V52.2616C371.056 52.2211 370.246 51.7957 369.922 50.9855C369.598 50.1347 369.436 49.1219 369.436 47.947V29.4733C369.517 29.2303 369.618 28.9264 369.74 28.5618C369.902 28.1972 370.145 27.8326 370.469 27.468C370.55 27.3869 370.692 27.2249 370.894 26.9818C371.097 26.6982 371.38 26.4146 371.745 26.1311C372.15 25.807 372.616 25.5234 373.143 25.2803C373.71 24.9967 374.338 24.8347 375.027 24.7941H375.574C376.303 24.7941 376.951 24.9157 377.518 25.1588C378.085 25.3613 378.572 25.6044 378.977 25.888C379.422 26.1716 379.767 26.4349 380.01 26.678C380.253 26.921 380.395 27.0831 380.435 27.1641C380.719 26.678 380.982 26.1918 381.225 25.7057C381.468 25.2195 381.731 24.7334 382.015 24.2472C380.921 23.437 379.544 23.0318 377.883 23.0318Z" fill="#2372DB"/>
<path d="M412.181 47.3393V23.2749H411.512C410.702 23.8421 409.446 24.2472 407.744 24.4903C407.218 24.5713 406.772 24.6321 406.408 24.6726C406.043 24.7131 405.516 24.7334 404.828 24.7334V25.2803C406.002 25.3208 406.792 25.6246 407.197 26.1918C407.603 26.759 407.805 27.63 407.805 28.8049V45.8809C406.792 47.6229 405.395 49.0814 403.612 50.2562C401.911 51.4311 400.027 52.0185 397.961 52.0185C396.664 52.0185 395.55 51.7755 394.618 51.2893C393.849 50.8842 393.221 50.3575 392.735 49.7093C392.289 49.0611 391.924 48.3724 391.641 47.6432C391.357 46.8734 391.155 46.0835 391.033 45.2732C390.952 44.4224 390.911 43.6122 390.911 42.8425V28.8049V23.2749H390.304C389.413 23.8421 388.136 24.2472 386.475 24.4903C385.949 24.5713 385.503 24.6321 385.138 24.6726C384.814 24.7131 384.308 24.7334 383.619 24.7334V25.2803C384.794 25.3208 385.584 25.6246 385.989 26.1918C386.394 26.759 386.597 27.63 386.597 28.8049V42.0525C386.597 43.5919 386.86 45.0301 387.387 46.367C387.914 47.6634 388.643 48.7978 389.575 49.7701C390.547 50.7424 391.681 51.5121 392.978 52.0793C394.315 52.606 395.773 52.8693 397.353 52.8693C398.649 52.8693 399.804 52.7275 400.817 52.4439C401.87 52.1603 402.802 51.816 403.612 51.4108C404.463 51.0057 405.172 50.5803 405.739 50.1347C406.347 49.6891 406.833 49.3244 407.197 49.0409C407.319 48.8788 407.441 48.7978 407.562 48.7978C407.724 48.7978 407.805 48.9801 407.805 49.3447V52.8693H408.413C409.304 52.3021 410.58 51.8767 412.241 51.5931C412.768 51.5121 413.193 51.4716 413.517 51.4716C413.882 51.4311 414.409 51.4108 415.097 51.4108V50.8639C413.963 50.8234 413.193 50.5196 412.788 49.9524C412.383 49.3447 412.181 48.4737 412.181 47.3393Z" fill="#2372DB"/>
<path d="M57.2797 50.3778C58.0494 51.5931 59.5889 52.2413 61.8981 52.3224L62.3235 52.5654C61.4727 52.849 60.5004 52.9908 59.4066 52.9908C58.6369 52.9908 57.8063 52.9098 56.9151 52.7477C56.0238 52.5452 55.1933 52.2211 54.4236 51.7754C53.6943 51.3298 53.0664 50.7424 52.5397 50.0131C52.0536 49.2839 51.8105 48.3724 51.8105 47.2785V39.6217C51.77 37.434 51.7497 35.1451 51.7497 32.7548L51.7497 19.7723H46.9999V16.7792H51.7497L51.7497 9.73071H56.1251L56.125 16.7792H60.9999V19.7723H56.125L56.1251 44.787C56.1251 47.2988 56.5099 49.1624 57.2797 50.3778Z" fill="#2372DB"/>
<g clip-path="url(#clip0_20_13)">
<path d="M240.296 9.2166L241.739 10.8651L239.634 10.2565L238.512 12.1382L238.441 9.94851L236.304 9.46296L238.365 8.71835L238.167 6.53574L239.513 8.26536L241.525 7.40321L240.296 9.2166ZM232.53 11.6294C231.302 8.51828 232.829 5.0014 235.941 3.77389C236.271 3.64426 236.611 3.54371 236.958 3.47339C235.628 3.20884 234.25 3.33367 232.989 3.83292C229.35 5.2688 227.563 9.38293 228.999 13.0224C230.435 16.6618 234.549 18.4479 238.188 17.0121C239.451 16.5159 240.543 15.6661 241.334 14.5647C241.032 14.7504 240.715 14.9094 240.385 15.0399C237.274 16.2674 233.757 14.7404 232.53 11.6294Z" fill="#2372DB"/>
</g>
<path d="M305.683 39L308.025 34.9444H303.342L301 30.8887L298.658 34.9444H293.975L296.317 39L293.975 43.0557H298.658L301 47.1114L303.342 43.0557H308.025L305.683 39ZM305.937 36.1491L304.986 37.7948L304.034 36.1491H305.937ZM304.291 39L302.646 41.851H299.354L297.709 39L299.354 36.1491H302.646L304.291 39ZM301 33.2982L301.951 34.9439H300.049L301 33.2982ZM296.063 36.1491H297.964L297.012 37.7948L296.063 36.1491ZM296.063 41.851L297.014 40.2053L297.966 41.851H296.063ZM301 44.7019L300.049 43.0562H301.951L301 44.7019ZM304.987 40.2048L305.939 41.8505H304.037L304.987 40.2048Z" fill="#2372DB"/>
<path d="M40.1662 14.7515C39.3206 14.7515 38.6071 15.0605 38.0257 15.6784C37.4444 16.2449 37.1537 16.9401 37.1537 17.764C37.1537 18.5879 37.4444 19.3089 38.0257 19.9268C38.6071 20.4933 39.3206 20.7765 40.1662 20.7765C41.0118 20.7765 41.7252 20.4933 42.3066 19.9268C42.8879 19.3089 43.1786 18.5879 43.1786 17.764C43.1786 16.9401 42.8879 16.2449 42.3066 15.6784C41.7252 15.0605 41.0118 14.7515 40.1662 14.7515Z" fill="#2372DB"/>
<defs>
<clipPath id="clip0_20_13">
<rect width="16" height="16" fill="white" transform="translate(225 6) rotate(-21.5309)"/>
</clipPath>
</defs>
</svg>
